<?xml version="1.0" standalone="no"?>
<!DOCTYPE svg PUBLIC "-//W3C//DTD SVG 20010904//EN"
 "http://www.w3.org/TR/2001/REC-SVG-20010904/DTD/svg10.dtd">
<svg version="1.0" xmlns="http://www.w3.org/2000/svg"
 width="320.000000pt" height="320.000000pt" viewBox="0 0 320.000000 320.000000"
 preserveAspectRatio="xMidYMid meet">
<metadata>
Created by potrace 1.14, written by Peter Selinger 2001-2017
</metadata>
<g transform="translate(0.000000,320.000000) scale(0.100000,-0.100000)"
fill="#000000" stroke="none">
<path d="M0 1600 l0 -1600 1600 0 1600 0 0 1600 0 1600 -1600 0 -1600 0 0
-1600z m1950 1100 l0 -100 -105 0 -105 0 0 -200 0 -200 385 0 385 0 0 -100 0
-100 -105 0 -105 0 0 -599 c0 -672 -2 -700 -67 -831 -93 -189 -279 -280 -552
-267 -307 13 -501 163 -555 429 -9 42 -16 97 -16 121 l0 45 -57 7 c-88 11
-203 51 -269 93 -161 104 -234 269 -234 527 l0 115 115 0 115 0 0 -107 c0
-171 42 -283 132 -354 70 -55 105 -64 248 -64 106 0 132 3 170 21 55 25 104
72 131 126 46 89 49 137 49 756 l0 582 -170 0 -170 0 0 100 0 100 390 0 390 0
0 -100z"/>
<path d="M1740 1701 c0 -223 -4 -319 -15 -378 -20 -105 -75 -215 -140 -278
-51 -51 -152 -107 -212 -120 -32 -6 -33 -9 -33 -53 0 -109 57 -233 132 -293
70 -55 105 -64 248 -64 106 0 132 3 170 21 55 25 104 72 131 126 46 89 49 137
49 756 l0 582 -165 0 -165 0 0 -299z"/>
</g>
</svg>
